<mxfile host="Electron" agent="Mozilla/5.0 (X11; Linux x86_64) AppleWebKit/537.36 (KHTML, like Gecko) draw.io/24.7.17 Chrome/128.0.6613.36 Electron/32.0.1 Safari/537.36" version="24.7.17">
  <diagram id="C5RBs43oDa-KdzZeNtuy" name="Page-1">
    <mxGraphModel dx="1434" dy="845" grid="1" gridSize="10" guides="1" tooltips="1" connect="1" arrows="1" fold="1" page="1" pageScale="1" pageWidth="5000" pageHeight="5000" math="0" shadow="0">
      <root>
        <mxCell id="WIyWlLk6GJQsqaUBKTNV-0" />
        <mxCell id="WIyWlLk6GJQsqaUBKTNV-1" parent="WIyWlLk6GJQsqaUBKTNV-0" />
        <mxCell id="S5NlNBrOPDAlS5kl1jgC-8" value="TabelaProduto" style="swimlane;fontStyle=0;childLayout=stackLayout;horizontal=1;startSize=26;fillColor=none;horizontalStack=0;resizeParent=1;resizeParentMax=0;resizeLast=0;collapsible=1;marginBottom=0;whiteSpace=wrap;html=1;" parent="WIyWlLk6GJQsqaUBKTNV-1" vertex="1">
          <mxGeometry x="1610" y="2702" width="140" height="52" as="geometry" />
        </mxCell>
        <mxCell id="AroC4z26SkDrhtmdcJUx-32" value="+ qtdProduto: Integer" style="text;strokeColor=none;fillColor=none;align=left;verticalAlign=top;spacingLeft=4;spacingRight=4;overflow=hidden;rotatable=0;points=[[0,0.5],[1,0.5]];portConstraint=eastwest;whiteSpace=wrap;html=1;" parent="S5NlNBrOPDAlS5kl1jgC-8" vertex="1">
          <mxGeometry y="26" width="140" height="26" as="geometry" />
        </mxCell>
        <mxCell id="S5NlNBrOPDAlS5kl1jgC-12" value="Data" style="swimlane;fontStyle=0;childLayout=stackLayout;horizontal=1;startSize=26;fillColor=none;horizontalStack=0;resizeParent=1;resizeParentMax=0;resizeLast=0;collapsible=1;marginBottom=0;whiteSpace=wrap;html=1;" parent="WIyWlLk6GJQsqaUBKTNV-1" vertex="1">
          <mxGeometry x="1920" y="2570" width="140" height="104" as="geometry" />
        </mxCell>
        <mxCell id="AroC4z26SkDrhtmdcJUx-12" value="+ dia: Integer" style="text;strokeColor=none;fillColor=none;align=left;verticalAlign=top;spacingLeft=4;spacingRight=4;overflow=hidden;rotatable=0;points=[[0,0.5],[1,0.5]];portConstraint=eastwest;whiteSpace=wrap;html=1;" parent="S5NlNBrOPDAlS5kl1jgC-12" vertex="1">
          <mxGeometry y="26" width="140" height="26" as="geometry" />
        </mxCell>
        <mxCell id="AroC4z26SkDrhtmdcJUx-14" value="+ ano: Integer" style="text;strokeColor=none;fillColor=none;align=left;verticalAlign=top;spacingLeft=4;spacingRight=4;overflow=hidden;rotatable=0;points=[[0,0.5],[1,0.5]];portConstraint=eastwest;whiteSpace=wrap;html=1;" parent="S5NlNBrOPDAlS5kl1jgC-12" vertex="1">
          <mxGeometry y="52" width="140" height="26" as="geometry" />
        </mxCell>
        <mxCell id="AroC4z26SkDrhtmdcJUx-13" value="+ mes: Integer" style="text;strokeColor=none;fillColor=none;align=left;verticalAlign=top;spacingLeft=4;spacingRight=4;overflow=hidden;rotatable=0;points=[[0,0.5],[1,0.5]];portConstraint=eastwest;whiteSpace=wrap;html=1;" parent="S5NlNBrOPDAlS5kl1jgC-12" vertex="1">
          <mxGeometry y="78" width="140" height="26" as="geometry" />
        </mxCell>
        <mxCell id="S5NlNBrOPDAlS5kl1jgC-24" value="Modificador" style="swimlane;fontStyle=0;childLayout=stackLayout;horizontal=1;startSize=26;fillColor=none;horizontalStack=0;resizeParent=1;resizeParentMax=0;resizeLast=0;collapsible=1;marginBottom=0;whiteSpace=wrap;html=1;" parent="WIyWlLk6GJQsqaUBKTNV-1" vertex="1">
          <mxGeometry x="1920" y="2689" width="140" height="78" as="geometry" />
        </mxCell>
        <mxCell id="AroC4z26SkDrhtmdcJUx-34" value="+ desconto: Boolean" style="text;strokeColor=none;fillColor=none;align=left;verticalAlign=top;spacingLeft=4;spacingRight=4;overflow=hidden;rotatable=0;points=[[0,0.5],[1,0.5]];portConstraint=eastwest;whiteSpace=wrap;html=1;" parent="S5NlNBrOPDAlS5kl1jgC-24" vertex="1">
          <mxGeometry y="26" width="140" height="26" as="geometry" />
        </mxCell>
        <mxCell id="AroC4z26SkDrhtmdcJUx-19" value="+ multiplicador: Double" style="text;strokeColor=none;fillColor=none;align=left;verticalAlign=top;spacingLeft=4;spacingRight=4;overflow=hidden;rotatable=0;points=[[0,0.5],[1,0.5]];portConstraint=eastwest;whiteSpace=wrap;html=1;" parent="S5NlNBrOPDAlS5kl1jgC-24" vertex="1">
          <mxGeometry y="52" width="140" height="26" as="geometry" />
        </mxCell>
        <mxCell id="IJzy_CR9gzLhfkeMkCAJ-27" value="Produto" style="swimlane;fontStyle=0;childLayout=stackLayout;horizontal=1;startSize=26;fillColor=none;horizontalStack=0;resizeParent=1;resizeParentMax=0;resizeLast=0;collapsible=1;marginBottom=0;whiteSpace=wrap;html=1;" parent="WIyWlLk6GJQsqaUBKTNV-1" vertex="1">
          <mxGeometry x="2165" y="2750" width="140" height="52" as="geometry" />
        </mxCell>
        <mxCell id="IJzy_CR9gzLhfkeMkCAJ-31" value="Preco" style="swimlane;fontStyle=0;childLayout=stackLayout;horizontal=1;startSize=26;fillColor=none;horizontalStack=0;resizeParent=1;resizeParentMax=0;resizeLast=0;collapsible=1;marginBottom=0;whiteSpace=wrap;html=1;" parent="WIyWlLk6GJQsqaUBKTNV-1" vertex="1">
          <mxGeometry x="2390" y="2610" width="140" height="52" as="geometry" />
        </mxCell>
        <mxCell id="IJzy_CR9gzLhfkeMkCAJ-32" value="+ valor: Double" style="text;strokeColor=none;fillColor=none;align=left;verticalAlign=top;spacingLeft=4;spacingRight=4;overflow=hidden;rotatable=0;points=[[0,0.5],[1,0.5]];portConstraint=eastwest;whiteSpace=wrap;html=1;" parent="IJzy_CR9gzLhfkeMkCAJ-31" vertex="1">
          <mxGeometry y="26" width="140" height="26" as="geometry" />
        </mxCell>
        <mxCell id="IJzy_CR9gzLhfkeMkCAJ-35" value="Descricao" style="swimlane;fontStyle=0;childLayout=stackLayout;horizontal=1;startSize=26;fillColor=none;horizontalStack=0;resizeParent=1;resizeParentMax=0;resizeLast=0;collapsible=1;marginBottom=0;whiteSpace=wrap;html=1;" parent="WIyWlLk6GJQsqaUBKTNV-1" vertex="1">
          <mxGeometry x="2390" y="2684" width="140" height="78" as="geometry" />
        </mxCell>
        <mxCell id="AroC4z26SkDrhtmdcJUx-21" value="+ nome: String" style="text;strokeColor=none;fillColor=none;align=left;verticalAlign=top;spacingLeft=4;spacingRight=4;overflow=hidden;rotatable=0;points=[[0,0.5],[1,0.5]];portConstraint=eastwest;whiteSpace=wrap;html=1;" parent="IJzy_CR9gzLhfkeMkCAJ-35" vertex="1">
          <mxGeometry y="26" width="140" height="26" as="geometry" />
        </mxCell>
        <mxCell id="IJzy_CR9gzLhfkeMkCAJ-38" value="+ corpo: String" style="text;strokeColor=none;fillColor=none;align=left;verticalAlign=top;spacingLeft=4;spacingRight=4;overflow=hidden;rotatable=0;points=[[0,0.5],[1,0.5]];portConstraint=eastwest;whiteSpace=wrap;html=1;" parent="IJzy_CR9gzLhfkeMkCAJ-35" vertex="1">
          <mxGeometry y="52" width="140" height="26" as="geometry" />
        </mxCell>
        <mxCell id="IJzy_CR9gzLhfkeMkCAJ-39" value="Categoria" style="swimlane;fontStyle=0;childLayout=stackLayout;horizontal=1;startSize=26;fillColor=none;horizontalStack=0;resizeParent=1;resizeParentMax=0;resizeLast=0;collapsible=1;marginBottom=0;whiteSpace=wrap;html=1;" parent="WIyWlLk6GJQsqaUBKTNV-1" vertex="1">
          <mxGeometry x="2390" y="2788" width="140" height="52" as="geometry" />
        </mxCell>
        <mxCell id="IJzy_CR9gzLhfkeMkCAJ-42" value="+ nome: String" style="text;strokeColor=none;fillColor=none;align=left;verticalAlign=top;spacingLeft=4;spacingRight=4;overflow=hidden;rotatable=0;points=[[0,0.5],[1,0.5]];portConstraint=eastwest;whiteSpace=wrap;html=1;" parent="IJzy_CR9gzLhfkeMkCAJ-39" vertex="1">
          <mxGeometry y="26" width="140" height="26" as="geometry" />
        </mxCell>
        <mxCell id="IJzy_CR9gzLhfkeMkCAJ-48" value="FavoritoProduto" style="swimlane;fontStyle=0;childLayout=stackLayout;horizontal=1;startSize=26;fillColor=none;horizontalStack=0;resizeParent=1;resizeParentMax=0;resizeLast=0;collapsible=1;marginBottom=0;whiteSpace=wrap;html=1;" parent="WIyWlLk6GJQsqaUBKTNV-1" vertex="1">
          <mxGeometry x="2130" y="2530" width="140" height="52" as="geometry" />
        </mxCell>
        <mxCell id="IJzy_CR9gzLhfkeMkCAJ-54" value="" style="endArrow=open;html=1;endSize=12;startArrow=diamondThin;startSize=14;startFill=1;edgeStyle=orthogonalEdgeStyle;align=left;verticalAlign=bottom;rounded=0;entryX=1;entryY=0.25;entryDx=0;entryDy=0;exitX=0;exitY=0.25;exitDx=0;exitDy=0;" parent="WIyWlLk6GJQsqaUBKTNV-1" source="IJzy_CR9gzLhfkeMkCAJ-39" target="IJzy_CR9gzLhfkeMkCAJ-27" edge="1">
          <mxGeometry x="-0.875" y="10" relative="1" as="geometry">
            <mxPoint x="2145" y="2693" as="sourcePoint" />
            <mxPoint x="2305" y="2693" as="targetPoint" />
            <mxPoint as="offset" />
          </mxGeometry>
        </mxCell>
        <mxCell id="IJzy_CR9gzLhfkeMkCAJ-55" value="" style="endArrow=block;endFill=1;html=1;edgeStyle=orthogonalEdgeStyle;align=left;verticalAlign=top;rounded=0;exitX=0.75;exitY=0;exitDx=0;exitDy=0;entryX=0;entryY=0.25;entryDx=0;entryDy=0;" parent="WIyWlLk6GJQsqaUBKTNV-1" source="IJzy_CR9gzLhfkeMkCAJ-27" target="IJzy_CR9gzLhfkeMkCAJ-35" edge="1">
          <mxGeometry x="-1" relative="1" as="geometry">
            <mxPoint x="2315" y="2673" as="sourcePoint" />
            <mxPoint x="2475" y="2673" as="targetPoint" />
          </mxGeometry>
        </mxCell>
        <mxCell id="IJzy_CR9gzLhfkeMkCAJ-57" value="" style="endArrow=block;endFill=1;html=1;edgeStyle=orthogonalEdgeStyle;align=left;verticalAlign=top;rounded=0;exitX=0.75;exitY=0;exitDx=0;exitDy=0;entryX=0;entryY=0.25;entryDx=0;entryDy=0;" parent="WIyWlLk6GJQsqaUBKTNV-1" source="IJzy_CR9gzLhfkeMkCAJ-27" target="IJzy_CR9gzLhfkeMkCAJ-31" edge="1">
          <mxGeometry x="-1" relative="1" as="geometry">
            <mxPoint x="2315" y="2673" as="sourcePoint" />
            <mxPoint x="2475" y="2673" as="targetPoint" />
          </mxGeometry>
        </mxCell>
        <mxCell id="IJzy_CR9gzLhfkeMkCAJ-59" value="" style="endArrow=diamondThin;html=1;endSize=12;startArrow=diamondThin;startSize=14;startFill=1;edgeStyle=orthogonalEdgeStyle;align=left;verticalAlign=bottom;rounded=0;exitX=0.75;exitY=1;exitDx=0;exitDy=0;entryX=0.5;entryY=0;entryDx=0;entryDy=0;endFill=1;" parent="WIyWlLk6GJQsqaUBKTNV-1" source="IJzy_CR9gzLhfkeMkCAJ-48" target="IJzy_CR9gzLhfkeMkCAJ-27" edge="1">
          <mxGeometry x="-1" y="3" relative="1" as="geometry">
            <mxPoint x="2285" y="2543" as="sourcePoint" />
            <mxPoint x="2445" y="2543" as="targetPoint" />
          </mxGeometry>
        </mxCell>
        <mxCell id="IJzy_CR9gzLhfkeMkCAJ-87" value="Estoque" style="swimlane;fontStyle=0;childLayout=stackLayout;horizontal=1;startSize=26;fillColor=none;horizontalStack=0;resizeParent=1;resizeParentMax=0;resizeLast=0;collapsible=1;marginBottom=0;whiteSpace=wrap;html=1;" parent="WIyWlLk6GJQsqaUBKTNV-1" vertex="1">
          <mxGeometry x="2390" y="2860" width="140" height="78" as="geometry" />
        </mxCell>
        <mxCell id="IJzy_CR9gzLhfkeMkCAJ-88" value="+ capacidade: Integer" style="text;strokeColor=none;fillColor=none;align=left;verticalAlign=top;spacingLeft=4;spacingRight=4;overflow=hidden;rotatable=0;points=[[0,0.5],[1,0.5]];portConstraint=eastwest;whiteSpace=wrap;html=1;" parent="IJzy_CR9gzLhfkeMkCAJ-87" vertex="1">
          <mxGeometry y="26" width="140" height="26" as="geometry" />
        </mxCell>
        <mxCell id="IJzy_CR9gzLhfkeMkCAJ-89" value="+ quantidade: Integer" style="text;strokeColor=none;fillColor=none;align=left;verticalAlign=top;spacingLeft=4;spacingRight=4;overflow=hidden;rotatable=0;points=[[0,0.5],[1,0.5]];portConstraint=eastwest;whiteSpace=wrap;html=1;" parent="IJzy_CR9gzLhfkeMkCAJ-87" vertex="1">
          <mxGeometry y="52" width="140" height="26" as="geometry" />
        </mxCell>
        <mxCell id="IJzy_CR9gzLhfkeMkCAJ-91" value="" style="endArrow=block;endFill=1;html=1;edgeStyle=orthogonalEdgeStyle;align=left;verticalAlign=top;rounded=0;entryX=0;entryY=0.25;entryDx=0;entryDy=0;exitX=0.75;exitY=1;exitDx=0;exitDy=0;" parent="WIyWlLk6GJQsqaUBKTNV-1" source="IJzy_CR9gzLhfkeMkCAJ-27" target="IJzy_CR9gzLhfkeMkCAJ-87" edge="1">
          <mxGeometry x="-1" relative="1" as="geometry">
            <mxPoint x="2305" y="2834" as="sourcePoint" />
            <mxPoint x="2460" y="2880" as="targetPoint" />
          </mxGeometry>
        </mxCell>
        <mxCell id="AroC4z26SkDrhtmdcJUx-17" value="" style="endArrow=open;html=1;endSize=12;startArrow=diamondThin;startSize=14;startFill=1;edgeStyle=orthogonalEdgeStyle;align=left;verticalAlign=bottom;rounded=0;exitX=0;exitY=0.25;exitDx=0;exitDy=0;entryX=1;entryY=0.25;entryDx=0;entryDy=0;" parent="WIyWlLk6GJQsqaUBKTNV-1" source="S5NlNBrOPDAlS5kl1jgC-12" target="S5NlNBrOPDAlS5kl1jgC-8" edge="1">
          <mxGeometry x="-1" y="3" relative="1" as="geometry">
            <mxPoint x="1920" y="2672" as="sourcePoint" />
            <mxPoint x="2080" y="2672" as="targetPoint" />
          </mxGeometry>
        </mxCell>
        <mxCell id="AroC4z26SkDrhtmdcJUx-18" value="" style="endArrow=open;html=1;endSize=12;startArrow=diamondThin;startSize=14;startFill=1;edgeStyle=orthogonalEdgeStyle;align=left;verticalAlign=bottom;rounded=0;exitX=0;exitY=0.25;exitDx=0;exitDy=0;entryX=1;entryY=0.25;entryDx=0;entryDy=0;" parent="WIyWlLk6GJQsqaUBKTNV-1" source="S5NlNBrOPDAlS5kl1jgC-24" target="S5NlNBrOPDAlS5kl1jgC-8" edge="1">
          <mxGeometry x="-1" y="3" relative="1" as="geometry">
            <mxPoint x="1920" y="2672" as="sourcePoint" />
            <mxPoint x="2080" y="2672" as="targetPoint" />
          </mxGeometry>
        </mxCell>
        <mxCell id="AroC4z26SkDrhtmdcJUx-20" value="" style="endArrow=open;html=1;endSize=12;startArrow=diamondThin;startSize=14;startFill=1;edgeStyle=orthogonalEdgeStyle;align=left;verticalAlign=bottom;rounded=0;exitX=0;exitY=0.25;exitDx=0;exitDy=0;entryX=1;entryY=0.25;entryDx=0;entryDy=0;" parent="WIyWlLk6GJQsqaUBKTNV-1" source="IJzy_CR9gzLhfkeMkCAJ-27" target="S5NlNBrOPDAlS5kl1jgC-8" edge="1">
          <mxGeometry x="-1" y="3" relative="1" as="geometry">
            <mxPoint x="2040" y="3024" as="sourcePoint" />
            <mxPoint x="2200" y="3024" as="targetPoint" />
            <Array as="points">
              <mxPoint x="2080" y="2763" />
              <mxPoint x="2080" y="2800" />
              <mxPoint x="1800" y="2800" />
              <mxPoint x="1800" y="2715" />
            </Array>
          </mxGeometry>
        </mxCell>
        <mxCell id="AroC4z26SkDrhtmdcJUx-37" value="1" style="text;html=1;align=center;verticalAlign=middle;resizable=0;points=[];autosize=1;strokeColor=none;fillColor=none;" parent="WIyWlLk6GJQsqaUBKTNV-1" vertex="1">
          <mxGeometry x="2230" y="2708" width="30" height="30" as="geometry" />
        </mxCell>
        <mxCell id="AroC4z26SkDrhtmdcJUx-40" value="0..n" style="text;html=1;align=center;verticalAlign=middle;resizable=0;points=[];autosize=1;strokeColor=none;fillColor=none;" parent="WIyWlLk6GJQsqaUBKTNV-1" vertex="1">
          <mxGeometry x="2180" y="2590" width="40" height="30" as="geometry" />
        </mxCell>
      </root>
    </mxGraphModel>
  </diagram>
</mxfile>
